<svg xmlns="http://www.w3.org/2000/svg" viewBox="0 0 1231.1 1044.58"><defs><style>.cls-1{fill:#6d55fe;}.cls-2{fill:#6e56fe;}</style></defs><g id="Layer_2" data-name="Layer 2"><g id="Layer_1-2" data-name="Layer 1"><path class="cls-1" d="M0,981.82v-8a10.67,10.67,0,0,0,1.48-2.58c1.65-6.77,5.4-12.49,8.93-18.33q6.33-10.49,12.55-21a261,261,0,0,0,28.52-69A123.15,123.15,0,0,1,65.87,829a31.24,31.24,0,0,1,3.85-5.2A125.25,125.25,0,0,1,96,802.35c1.85-1.12,3.7-2.26,5.43-3.55a160,160,0,0,0,50.5-62.2c8.49-18.5,14.52-37.92,20-57.49a189.92,189.92,0,0,1,27.71-58.93,367.64,367.64,0,0,1,31.81-39.13c15.84-16.87,33.38-31.52,54-42.36,31.81-16.72,65.8-26,101.22-30.88,16.48-2.3,32.95-5,49.17-8.6,36.28-8.13,68.59-25.17,99.26-45.69a264.24,264.24,0,0,0,67.7-65.14c6.65-9.17,13.44-18.25,20.23-27.31,20.8-27.71,45.4-51.34,74.71-70,34-21.66,70.8-33.63,111.34-33.28a4.56,4.56,0,0,0,1.21-.3c-25.46-9.9-51.21-6.56-77.48-1.64.61-1.67.89-2.77,1.38-3.75,11.85-23.5,23.5-47.09,35.64-70.43,16.61-31.94,36.73-61.64,61.69-87.57,24.72-25.67,50.61-50.22,76.25-75C917.2,10,928.84,4.62,941.67,1.91c3.06-.65,6.13-1.27,9.2-1.91h15c1.28.3,2.55.72,3.85.89,18.17,2.42,34.12,9.66,47.54,22.18,15.77,14.71,28.53,32,41,49.42,3.53,5,6.16,10.5,8.87,16.74-2.59,0-4.41-.15-6.2,0-7.43.72-14.92,1.13-22.26,2.41-11.26,2-21.24,7.32-31,13.14l-6.71,4.11.54.87,7.3-3.75c11.33-4.44,22.84-8.19,35-9.32,37.54-3.48,68.33,9.18,91.82,38.84a72.25,72.25,0,0,1,7.53,12.32,30.92,30.92,0,0,1,3.51,15.93c-.31,5.08-2.22,7.23-7.23,7.95a31.13,31.13,0,0,1-15.27-1.33,84.4,84.4,0,0,0-23.38-5c-9-.58-16.23,3.06-21.4,10.43-2.76,3.94-2.5,7,.84,10.31a33,33,0,0,0,7.4,5.84,50.39,50.39,0,0,0,21,5.92c7.55.52,14.49-1.95,21.39-4.33,18.64-6.41,34.7-1.86,48.87,11,12.42,11.29,18.32,26.65,26.07,41.63-22.18,2.59-42.89,8.14-61.18,20.66l-7.13,4.24.62,1,7.55-4.22a151.18,151.18,0,0,1,46.22-13.65,53.94,53.94,0,0,1,34.21,6.4A10.53,10.53,0,0,1,1231,270a44.49,44.49,0,0,1-3.54,19,198.27,198.27,0,0,1-25.34,45.73,116.19,116.19,0,0,1-28.86,27.35c-10.38,7-21.82,10.8-34.31,10.48-9.8-.25-19.57-1.34-29.36-2.12-6.88-.55-13.76-1.19-20.64-1.78a10.35,10.35,0,0,0,2.43,4.19c3.14,3.88,6.39,7.67,9.35,11.68,6.18,8.41,6.92,17.74,4.35,27.58-3.77,14.43-9.95,27.86-16.7,41.07a21.43,21.43,0,0,1-1.67,2.19c-6.78-23-14.8-44.8-28-64.27-13.36-19.69-30.52-35.54-49.8-49.23l-6.12-3.89-.31-.25.39.18c1.61,1.69,3.23,3.38,4.84,5.08,8,9.4,16.41,18.43,23.76,28.29,17,22.88,30.31,47.79,37.86,75.48,3.48,12.77,5.25,25.75,4.11,39.05-1,11.28-1.89,22.57-2.44,33.88-.76,15.46,3.57,29.68,11.93,42.6,7.77,12,16.17,23.66,23.79,35.78,46.36,73.74,76.36,153.26,84.37,240.46a418,418,0,0,1-.32,83.32c-1.25,11.66-4.9,22.3-13,31.29s-13.85,19.73-18.38,31.23c-5.3,13.44-11.74,26.48-18.35,39.35-2.93,5.68-7.26,10.72-11.39,15.68-3.12,3.74-7.57,5.18-12.53,5.17q-69.73-.06-139.47,0c-13,0-22.1-5.86-26.64-17.94a203.65,203.65,0,0,1-7.19-23.87A125.64,125.64,0,0,1,941,983.55c-.52-6.52,1.94-9.43,8.23-11.21a18.67,18.67,0,0,1,3.92-.72c14.63-.91,21.6,4.92,23.72,17.75.64,3.87,1,7.78,1.63,12.33a10.83,10.83,0,0,0,1.1-2.19c2-10.87,2.95-21.76,1.15-32.78-2.33-14.26-8.72-26.11-20.24-35q-7.12-5.49-14.39-10.8a270.58,270.58,0,0,1-61.16-62c-24.4-34.44-39.08-72.9-47-114.13-1.58-8.22-2.88-16.49-4.31-24.74q-.4,14.61.42,29.05c1.15,19.83,3.71,39.45,9.84,58.46,5,15.42,11.8,30.06,18.75,44.64,5.23,11,10.34,22,15.66,32.93a25.24,25.24,0,0,1,.84,21.28c-.67,1.7-1.26,3.44-2,5.12-10,23.08-23.6,44-39.6,63.34a117.45,117.45,0,0,1-63.55,40c-32.79,8.22-65.4,6.45-97.74-2.62a35.87,35.87,0,0,1-8.94-4.34,16,16,0,0,1-7.71-12.26c-1.15-10.48,1.85-19.71,8.49-27.86a10.9,10.9,0,0,1,9.6-4.3c2.5.14,5,.27,7.49.46a6.83,6.83,0,0,0,7.46-4.64,32.18,32.18,0,0,0,2.25-8.15C696,940,697,928.67,697.79,917.38c.85-12.46,1.26-25,2.11-37.41s6.19-22.36,16.56-29.38c3.86-2.61,7.87-5,11.87-7.39,7.3-4.34,14.76-8.42,21.93-13,11.29-7.15,22-15.11,30.76-25.32a5.66,5.66,0,0,0,2.82-4.45l-4,3.38A215.68,215.68,0,0,1,743.15,824c-46.76,20.13-95.91,29.62-146.46,32.85a404.38,404.38,0,0,1-63.41-.94c-20.12-1.87-39.94-5.32-59.23-11.41-21.52-6.79-41.43-16.54-58.1-32.13-.18-.18-.59-.12-1.16-.21-.81,1.31-1.68,2.69-2.54,4.09-5.63,9.18-12.35,17.53-21.38,23.47-9.86,6.5-19.81,13-30.39,18.22-16.88,8.27-34.11,15.89-51.54,22.94-48.31,19.55-96.83,38.57-145.19,58-15.29,6.14-30.4,12.76-45.46,19.44a88.36,88.36,0,0,0-12.93,7.5c-4.39,2.92-6,7.32-5.73,12.55.34,6,2.65,11.08,7.48,14.63q9.45,7,19.31,13.32c4.94,3.21,9.61,6.63,13,11.47,3.54,5,3.62,10.21.6,15.5a18.94,18.94,0,0,1-12,9.21,52.72,52.72,0,0,1-12.81,1.68c-22.49.16-45,.11-67.49,0a57.91,57.91,0,0,1-10.44-.85c-9.78-1.84-16.81-7.68-21.92-16a101.73,101.73,0,0,1-13.85-39.3ZM905,369.94c1.71-8.26.37-16.17-3-23.73a25.78,25.78,0,0,0-4.23-6.09c-5.49-6.36-12.78-9.23-20.88-10.51-11.69-1.83-21.42,1.63-28.49,11.16-6.29,8.46-9.91,18.33-13.55,28.13l-15.93,37c-3.65,8.17-7.37,16.31-10.93,24.51-2.51,5.77-4.82,11.62-7.22,17.43a31.13,31.13,0,0,0-1.74,3q-9,20.52-17.91,41.07c-3.89,8.74-7.82,17.46-11.66,26.22-2.57,5.89-5,11.84-7.49,17.76l-2.44,4.89c-.76,1.52-1.56,3-3.61,2.9-2.48-.08-2.75-2-3.13-3.78-.12-1-.17-2-.36-2.93q-2.68-13.54-5.4-27.08c-.37-2.8-.65-5.6-1.12-8.37-1-5.88-2.12-11.74-3.18-17.61q-3.46-16.5-6.94-33c-1.82-10.74-5.88-20.44-13.27-28.6-4.77-5.26-10.28-8.8-17.81-8.48-11.08.46-20.82,4-28.93,11.71-1.68,1.6-3.51,3.06-5.2,4.66Q659.09,441,647.7,451.84c-1.81,1.44-3.7,2.8-5.42,4.35-3.95,3.56-7.87,7.15-11.71,10.82-5.88,5.61-11.69,11.3-17.53,16.95-5.25,4.77-10.57,9.46-15.73,14.32-3.95,3.74-7.7,7.71-11.53,11.57-6.58,6.1-13.19,12.16-19.72,18.3C562,532,557.93,536,553.88,539.89c-.66.51-1.35,1-2,1.54-8.55,7.92-17.12,15.82-25.61,23.8-4,3.76-7.8,7.7-11.69,11.55-10.32,9.52-13.87,21.44-12.45,35.12.95,4.9,1.82,9.81,2.86,14.69,1.94,9.11,4,18.2,6,27.3,1.66,8.73,3.27,17.46,5,26.18,1.18,6,2.53,11.89,3.81,17.83,1.22,7,2.38,14,3.7,21,1,5.35,2.24,10.66,3.36,16a59.86,59.86,0,0,0,5.18,19.63c5.77,12.65,17,19,32.58,17.79,8.42-.64,15-4.9,20.21-11.41,6-7.44,9.15-16.36,13.19-24.83L616.23,698c.8-1.45,1.67-2.86,2.38-4.35q9.38-19.77,18.71-39.56c.64-1.15,1.35-2.26,1.91-3.44Q648.14,631.83,657,613q8.47-17.52,16.94-35c5-8.21,8.69-17.17,14.78-25.94,2.41,11.42,4.57,21.72,6.74,32,.8,4.75,1.5,9.52,2.43,14.24,2.08,10.58,4.28,21.15,6.43,31.72q3.49,17,7,34c1.21,4.3,1.86,8.86,3.75,12.84,4.51,9.47,11.48,16.15,22.55,17.34,8.29.88,15.79-1.56,22.88-5.43,9.14-5,18.14-10.22,27.21-15.32,4-2.27,8.1-4.48,12.15-6.71,1.63-.79,3.33-1.48,4.89-2.4q22.2-13.08,44.36-26.23c3.81-2.27,7.54-4.68,11.3-7,19.32-8.83,35.36-23.93,34.68-48.11.36-4.6.82-9.2,1.08-13.81.61-11.08,1.13-22.16,1.69-33.24a53.69,53.69,0,0,0,.84-5.88c.46-12.7.84-25.41,1.24-38.11a22.88,22.88,0,0,0,.78-3.87c.43-13.37.79-26.75,1.17-40.12q.93-21,1.88-42Z"/><path class="cls-2" d="M417,832.32c6.62,4,12.87,8.11,19.44,11.63,21.37,11.44,44.4,17.85,68.16,21.92,24.38,4.18,49,5.51,73.66,5,2.33,0,4.66,0,7,0a6.4,6.4,0,0,1,1.31.37c-.5,1.21-.89,2.42-1.46,3.54A91.63,91.63,0,0,1,549.47,913c-23.41,13.84-48.07,24.53-75,29.24-12.44,2.18-25.08,3.43-37.68,4.38-12.12.91-24.3.85-36.45,1.33-5.82.23-11.67.48-17.44,1.18-6.07.74-8.56,3.72-8.83,9.54s1.58,8.41,7.3,9.38a72.88,72.88,0,0,1,38.86,19.08c4.75,4.5,9.07,9.29,10.17,16.18,1,6.47-.49,9.7-6.85,11.12a164.2,164.2,0,0,1-20.7,3.16,439,439,0,0,1-56.42,1.15,75.69,75.69,0,0,1-10.91-1.29c-15-2.79-24.57-11.91-29.69-25.94-4.61-12.64-5.09-25.72-3.43-39,1.81-14.43,6.07-28.28,10.08-42.2,6.24-21.74,10.43-20.86,24-26.41A328.17,328.17,0,0,0,395.15,853a86.27,86.27,0,0,0,19.43-17.83C415.4,834.12,416.3,833.17,417,832.32Z"/></g></g></svg>